G04 #@! TF.FileFunction,Copper,L1,Top,Signal*
%FSLAX46Y46*%
G04 Gerber Fmt 4.6, Leading zero omitted, Abs format (unit mm)*
G04 Created by KiCad (PCBNEW 4.0.5+dfsg1-4) date Sun Apr  1 12:34:51 2018*
%MOMM*%
%LPD*%
G01*
G04 APERTURE LIST*
%ADD10C,0.100000*%
%ADD11C,1.600000*%
%ADD12C,0.250000*%
G04 APERTURE END LIST*
D10*
D11*
X140970000Y-99314000D03*
X143510000Y-99314000D03*
X146050000Y-99314000D03*
X148590000Y-99314000D03*
X151130000Y-99314000D03*
X153670000Y-99314000D03*
X148501100Y-105003600D03*
X151041100Y-105003600D03*
X153581100Y-105003600D03*
X143421100Y-105003600D03*
X145961100Y-105003600D03*
X143421100Y-102463600D03*
X145961100Y-102463600D03*
X148501100Y-102463600D03*
X151041100Y-102463600D03*
X153581100Y-102463600D03*
D12*
X148501100Y-102463600D02*
X148501100Y-105003600D01*
X143510000Y-99314000D02*
X144018000Y-99314000D01*
X144018000Y-99314000D02*
X145542000Y-100838000D01*
X145542000Y-100838000D02*
X146875500Y-100838000D01*
X146875500Y-100838000D02*
X148501100Y-102463600D01*
X148590000Y-99314000D02*
X148590000Y-100012500D01*
X148590000Y-100012500D02*
X151041100Y-102463600D01*
X151041100Y-102463600D02*
X151041100Y-105003600D01*
X145961100Y-102463600D02*
X145961100Y-105003600D01*
X140970000Y-99314000D02*
X141478000Y-99314000D01*
X141478000Y-99314000D02*
X143256000Y-101092000D01*
X144589500Y-101092000D02*
X145961100Y-102463600D01*
X143256000Y-101092000D02*
X144589500Y-101092000D01*
X140970000Y-99314000D02*
X140970000Y-100012500D01*
X140970000Y-100012500D02*
X143421100Y-102463600D01*
X143421100Y-102463600D02*
X143421100Y-105003600D01*
M02*
